<?xml version="1.0" encoding="UTF-8" standalone="no"?>
<!DOCTYPE svg PUBLIC "-//W3C//DTD SVG 1.1//EN" "http://www.w3.org/Graphics/SVG/1.1/DTD/svg11.dtd">
<svg width="100%" height="100%" viewBox="0 0 32 32" version="1.1" xmlns="http://www.w3.org/2000/svg" xmlns:xlink="http://www.w3.org/1999/xlink" xml:space="preserve" xmlns:serif="http://www.serif.com/" style="fill-rule:evenodd;clip-rule:evenodd;stroke-linecap:round;stroke-linejoin:round;stroke-miterlimit:1.5;">
    <g id="logo" transform="matrix(0.830168,0,0,0.830168,1.05698,1.0575)">
        <g transform="matrix(1.39331,0,0,1.39331,-10.1015,-6.99884)">
            <circle cx="20.169" cy="17.942" r="12.793" style="fill:none;stroke:white;stroke-width:1.9px;"/>
        </g>
        <path d="M29.962,4.565C29.292,5.98 28.819,9.057 16.497,9.957C5.821,10.736 2.227,25.676 12.51,33.879C12.749,34.317 14.459,34.609 14.366,34.971C14.029,35.904 8.886,33.348 12.58,35.125C13.354,35.498 20.096,36.058 20.709,35.824C17.905,35.178 13.186,33.603 11.38,27.17C10.196,22.955 10.85,17.417 15.493,14.711C13.541,18.046 14.43,22.699 19.96,25.956C18.605,19.7 18.996,14.185 23.519,13.107C22.623,14.325 21.231,18.494 25.862,23.075C25.676,14.398 30.072,10.494 34.018,10.27C33.017,8.963 31.141,5.641 29.962,4.565Z" style="fill:white;"/>
        <g transform="matrix(1.25596,0,0,1.25596,-3.67703,-9.21684)">
            <path d="M22.166,28.354C26.117,32.273 21.415,34.457 24.395,34.188C25.177,34.703 19.349,36.104 18,36C16.651,35.896 13.503,35.189 14.59,34.722C16.504,34.824 20.16,33.218 22.166,28.354Z" style="fill:white;"/>
        </g>
    </g>
</svg>
